#!OML:ASF H:\Male1\Project 1\Capture day 1\Session 1\Male1.ASF
:FULLY-SPECIFIED
:DEGREES
351
root 14.3752 14.7946 -2.95726 319.59 80.7708 -39.6397
lowerback 16.0782 0.418968 2.75739
upperback 10.3578 1.55624 -2.94991
thorax 2.18909 1.29358 -4.87562
lowerneck -3.8815 5.17539 8.17769
upperneck 15.1691 6.42676 0.765323
head 5.47507 3.71775 -0.696173
rclavicle 7.95139e-016 1.11319e-014
rhumerus -34.4302 7.03689 -89.2578
rradius 50.6057
rwrist -25.716
rhand -18.1688 2.30731
rfingers 7.12502
rthumb 8.10743 -27.5172
lclavicle 7.95139e-016 1.11319e-014
lhumerus -18.7217 3.85272 74.1887
lradius 32.8151
lwrist 12.5878
lhand -29.6217 19.9854
lfingers 7.12502
lthumb -2.95216 49.9447
rfemur -6.08324 1.6251 34.5074
rtibia 50.0779
rfoot -17.0895 -16.5999
rtoes -25.2637
lfemur -33.5518 -15.1105 -5.04623
ltibia 29.1539
lfoot -5.52059 16.5948
ltoes -11.2808
352
root 14.553 14.7941 -2.99848 321.215 80.9405 -38.3145
lowerback 16.8575 0.305103 1.96648
upperback 10.6978 1.36506 -3.07175
thorax 2.11287 1.18667 -4.54626
lowerneck -3.57452 5.16602 8.11329
upperneck 14.5865 6.4654 0.565915
head 5.24552 3.70033 -0.763809
rclavicle 2.8625e-014 3.18055e-014
rhumerus -34.3522 6.83689 -89.0312
rradius 50.9311
rwrist -25.8756
rhand -18.1899 2.40802
rfingers 7.12502
rthumb 8.08704 -27.4172
lclavicle 2.8625e-014 3.18055e-014
lhumerus -18.285 3.93184 74.3047
lradius 32.9688
lwrist 12.4018
lhand -30.0252 19.6252
lfingers 7.12502
lthumb -3.34175 49.5787
rfemur -8.93124 1.19054 33.8161
rtibia 54.7695
rfoot -14.027 -16.0763
rtoes -24.7038
lfemur -33.7157 -14.1834 -5.92744
ltibia 29.8544
lfoot -4.07357 15.7601
ltoes -12.5742
353
root 14.7223 14.7939 -3.04035 323.67 81.1516 -36.1215
lowerback 17.7075 0.244871 1.11768
upperback 11.08 1.23546 -3.2372
thorax 2.06293 1.11316 -4.23869
lowerneck -3.27571 5.15309 8.04203
upperneck 13.9462 6.49483 0.378835
head 4.99965 3.67858 -0.827365
rclavicle -6.36111e-015 -1.43125e-014
rhumerus -34.2424 6.57614 -88.7948
rradius 51.274
rwrist -26.0888
rhand -18.2142 2.50639
rfingers 7.12502
rthumb 8.06364 -27.3198
lclavicle -6.36111e-015 -1.43125e-014
lhumerus -17.684 3.70275 74.4346
lradius 33.1491
lwrist 12.4637
lhand -30.3692 19.3339
lfingers 7.12502
lthumb -3.67401 49.282
rfemur -11.9523 0.790536 33.047
rtibia 59.3715
rfoot -11.3515 -15.6742
rtoes -23.7019
lfemur -33.8945 -13.2973 -6.94329
ltibia 30.6521
lfoot -3.02583 15.0078
ltoes -13.5163
354
root 14.8825 14.7925 -3.08236 326.7 81.332 -33.3029
lowerback 18.6326 0.229889 0.280553
upperback 11.512 1.16507 -3.43623
thorax 2.0467 1.07521 -3.98341
lowerneck -3.00777 5.15232 7.98635
upperneck 13.2408 6.53261 0.201923
head 4.74073 3.66172 -0.889392
rclavicle 5.08889e-014 -1.27222e-014
rhumerus -34.0608 6.28443 -88.5813
rradius 51.6037
rwrist -26.3285
rhand -18.2355 2.56717
rfingers 7.12502
rthumb 8.04305 -27.2598
lclavicle 5.08889e-014 -1.27222e-014
lhumerus -16.9337 3.24818 74.5371
lradius 33.4239
lwrist 12.7648
lhand -30.6442 19.0539
lfingers 7.12502
lthumb -3.93953 48.9973
rfemur -15.0073 0.458835 32.3067
rtibia 63.6018
rfoot -9.53642 -15.5605
rtoes -22.6335
lfemur -34.0769 -12.4531 -8.01701
ltibia 31.5827
lfoot -2.30022 14.3751
ltoes -14.198
355
root 15.0333 14.7904 -3.12358 329.949 81.4099 -30.2362
lowerback 19.6107 0.255809 -0.498186
upperback 11.9845 1.15279 -3.64581
thorax 2.06558 1.0726 -3.78368
lowerneck -2.7835 5.17073 7.97029
upperneck 12.4736 6.58846 0.0118052
head 4.47403 3.65432 -0.959948
rclavicle -5.56597e-015 1.74931e-014
rhumerus -33.7774 5.99967 -88.4079
rradius 51.8845
rwrist -26.5587
rhand -18.2608 2.57525
rfingers 7.12502
rthumb 8.01858 -27.2526
lclavicle -5.56597e-015 1.74931e-014
lhumerus -16.0483 2.69957 74.5898
lradius 33.8142
lwrist 13.2211
lhand -30.8666 18.7621
lfingers 7.12502
lthumb -4.15427 48.7013
rfemur -18.0201 0.256873 31.6993
rtibia 67.2211
rfoot -8.82848 -15.8396
rtoes -21.8109
lfemur -34.2912 -11.6739 -9.03503
ltibia 32.6625
lfoot -2.02927 13.8989
ltoes -14.5677
356
root 15.1751 14.787 -3.16312 332.696 81.3705 -27.6588
lowerback 20.6354 0.298098 -1.15994
upperback 12.4891 1.175 -3.83356
thorax 2.11174 1.09435 -3.63554
lowerneck -2.69132 5.21617 7.98485
upperneck 11.3745 6.65208 -0.0964053
head 4.57956 3.65985 -1.10689
rclavicle -2.78299e-014 -1.11319e-014
rhumerus -33.3719 5.76664 -88.2792
rradius 52.0895
rwrist -26.7631
rhand -18.3113 2.56654
rfingers 7.12502
rthumb 7.96987 -27.2632
lclavicle -2.78299e-014 -1.11319e-014
lhumerus -15.0295 2.17894 74.5877
lradius 34.2903
lwrist 13.7157
lhand -31.0695 18.4466
lfingers 7.12502
lthumb -4.35029 48.3819
rfemur -20.922 0.218727 31.3255
rtibia 70.031
rfoot -9.16068 -16.486
rtoes -21.2747
lfemur -34.5717 -11.0121 -9.87381
ltibia 33.8857
lfoot -2.19154 13.5574
ltoes -14.3652
